<?xml version="1.0" standalone="no"?>
<!DOCTYPE svg PUBLIC "-//W3C//DTD SVG 20010904//EN"
 "http://www.w3.org/TR/2001/REC-SVG-20010904/DTD/svg10.dtd">
<svg version="1.0" xmlns="http://www.w3.org/2000/svg"
 width="820.000000pt" height="462.000000pt" viewBox="0 0 820.000000 462.000000"
 preserveAspectRatio="xMidYMid meet">

<g transform="translate(0.000000,462.000000) scale(0.100000,-0.100000)"
fill="#000000" stroke="none">
<path d="M2150 2310 l0 -1090 1950 0 1950 0 0 1090 0 1090 -1950 0 -1950 0 0
-1090z m3800 0 l0 -990 -1850 0 -1850 0 0 990 0 990 1850 0 1850 0 0 -990z"/>
<path d="M2720 3144 c0 -4 5 -23 11 -43 9 -32 -6 -103 -126 -616 -82 -353
-145 -601 -160 -632 l-25 -53 140 0 c77 0 140 3 140 6 0 3 -4 13 -9 23 -10 18
33 214 52 239 7 8 45 12 127 12 82 0 121 -4 128 -12 18 -23 61 -221 51 -240
-5 -9 -9 -19 -9 -22 0 -3 63 -6 140 -6 l140 0 -25 53 c-15 32 -78 279 -161
635 -117 502 -134 588 -125 614 6 17 11 35 11 39 0 5 -67 9 -150 9 -82 0 -150
-3 -150 -6z m232 -789 c5 -37 -10 -45 -83 -45 -54 0 -71 4 -76 16 -5 13 59
366 74 404 4 12 75 -298 85 -375z"/>
<path d="M3416 3118 c12 -43 12 -1254 0 -1290 l-8 -28 136 0 c75 0 136 2 136
4 0 2 -7 23 -15 46 -11 32 -15 89 -15 235 0 173 2 194 18 208 16 14 43 17 172
17 l154 0 58 57 58 57 0 306 0 306 -58 57 -58 57 -293 0 -293 0 8 -32z m452
-210 c8 -8 12 -64 12 -185 0 -202 5 -193 -116 -193 -115 0 -114 -2 -114 192 0
91 4 168 10 179 9 17 22 19 103 19 59 0 97 -4 105 -12z"/>
<path d="M4230 3148 c0 -2 7 -25 15 -52 22 -73 22 -1183 0 -1246 -8 -23 -15
-44 -15 -46 0 -2 150 -4 334 -4 310 0 335 1 340 18 9 34 38 223 34 227 -2 2
-26 -2 -53 -10 -57 -18 -355 -21 -386 -5 -17 10 -19 23 -19 163 0 106 4 157
12 165 17 17 117 15 167 -3 22 -8 41 -13 41 -12 4 18 2 268 -2 272 -3 3 -24
-2 -48 -10 -51 -18 -141 -20 -158 -3 -17 17 -17 299 0 316 18 18 331 16 393
-3 27 -8 51 -12 53 -10 4 4 -25 193 -34 228 -5 16 -30 17 -340 17 -184 0 -334
-1 -334 -2z"/>
<path d="M4990 3144 c0 -3 13 -23 29 -43 17 -22 80 -162 149 -332 l119 -295
-122 -303 c-68 -166 -132 -312 -142 -324 -43 -47 -44 -47 122 -47 l156 0 -15
28 c-13 25 -10 36 45 172 33 80 63 154 67 164 6 15 24 -19 76 -147 67 -162 68
-167 52 -192 l-16 -25 155 0 c85 0 155 3 155 6 0 3 -13 23 -29 43 -26 33 -261
597 -261 627 0 27 233 583 260 621 17 23 30 44 30 47 0 3 -70 6 -155 6 l-156
0 15 -28 c13 -26 10 -36 -50 -186 -35 -87 -65 -160 -67 -162 -2 -2 -32 68 -67
156 -56 141 -62 163 -52 185 7 14 12 28 12 30 0 3 -70 5 -155 5 -85 0 -155 -3
-155 -6z"/>
<path d="M2440 1580 c0 -113 1 -120 20 -120 17 0 20 7 20 45 0 43 1 45 30 45
37 0 48 21 44 84 -4 57 -13 66 -71 66 l-43 0 0 -120z m75 45 c0 -20 -6 -31
-17 -33 -15 -3 -18 4 -18 33 0 29 3 36 18 33 11 -2 17 -13 17 -33z"/>
<path d="M2580 1580 c0 -113 1 -120 20 -120 17 0 20 7 20 45 0 57 16 58 27 3
7 -35 13 -44 32 -46 18 -3 22 0 18 11 -14 37 -18 85 -8 91 15 10 14 109 -1
124 -7 7 -34 12 -60 12 l-48 0 0 -120z m78 42 c3 -27 0 -32 -17 -32 -17 0 -21
6 -21 36 0 28 3 35 18 32 11 -2 18 -14 20 -36z"/>
<path d="M2743 1693 c-9 -3 -13 -36 -13 -113 0 -117 2 -120 59 -120 44 0 51
16 51 120 0 61 -4 100 -12 108 -12 12 -62 15 -85 5z m57 -114 c0 -71 -2 -80
-17 -77 -15 3 -19 16 -21 67 -3 73 1 91 23 91 12 0 15 -15 15 -81z"/>
<path d="M2870 1580 c0 -113 1 -120 20 -120 17 0 20 7 20 50 0 43 3 50 20 50
13 0 20 7 20 20 0 13 -7 20 -20 20 -16 0 -20 7 -20 30 0 28 2 30 41 30 33 0
40 3 37 18 -2 13 -15 18 -61 20 l-57 3 0 -121z"/>
<path d="M3010 1580 l0 -121 57 3 c46 2 59 7 61 21 3 14 -4 17 -37 17 -39 0
-41 2 -41 30 0 23 4 30 20 30 13 0 20 7 20 20 0 13 -7 20 -20 20 -16 0 -20 7
-20 30 0 28 2 30 41 30 33 0 40 3 37 18 -2 13 -15 18 -61 20 l-57 3 0 -121z"/>
<path d="M3162 1688 c-16 -16 -16 -100 0 -116 7 -7 25 -12 40 -12 24 0 28 -4
28 -30 0 -23 -4 -30 -20 -30 -13 0 -20 7 -20 20 0 13 -7 20 -20 20 -15 0 -20
-7 -20 -28 0 -37 17 -52 60 -52 47 0 60 15 60 70 0 53 -13 70 -52 70 -24 0
-28 4 -28 30 0 35 29 43 37 10 3 -11 14 -20 24 -20 14 0 19 7 19 28 0 37 -17
52 -60 52 -20 0 -41 -5 -48 -12z"/>
<path d="M3311 1686 c-7 -8 -11 -37 -9 -68 l3 -53 38 -3 c35 -3 38 -6 35 -30
-4 -33 -38 -44 -38 -13 0 14 -6 21 -20 21 -15 0 -20 -7 -20 -28 0 -38 17 -52
62 -52 45 0 62 24 55 79 -6 51 -13 61 -48 61 -26 0 -29 3 -29 30 0 35 29 43
37 10 3 -11 14 -20 24 -20 15 0 18 6 15 31 -2 17 -10 35 -17 40 -22 14 -75 10
-88 -5z"/>
<path d="M3450 1580 c0 -113 1 -120 20 -120 19 0 20 7 20 120 0 113 -1 120
-20 120 -19 0 -20 -7 -20 -120z"/>
<path d="M3532 1688 c-16 -16 -16 -200 0 -216 13 -13 56 -16 82 -6 13 5 16 25
16 114 0 89 -3 109 -16 114 -26 10 -69 7 -82 -6z m58 -108 c0 -64 -3 -80 -15
-80 -12 0 -15 16 -15 80 0 64 3 80 15 80 12 0 15 -16 15 -80z"/>
<path d="M3667 1693 c-3 -5 -5 -58 -4 -118 2 -96 4 -110 20 -113 15 -3 17 5
17 64 0 76 7 75 40 -8 16 -42 28 -58 41 -58 18 0 19 9 19 120 0 112 -1 120
-20 120 -17 0 -19 -8 -22 -67 l-3 -68 -25 65 c-24 60 -49 85 -63 63z"/>
<path d="M3852 1594 c-13 -58 -26 -112 -29 -120 -3 -9 2 -14 16 -14 14 0 23 8
27 25 4 18 13 25 29 25 16 0 25 -7 29 -25 4 -17 13 -25 27 -25 14 0 19 5 16
14 -3 8 -16 62 -29 120 -20 92 -25 106 -43 106 -18 0 -23 -14 -43 -106z m57
-31 c1 -7 -6 -13 -14 -13 -17 0 -18 4 -8 39 6 23 7 23 14 5 4 -10 8 -25 8 -31z"/>
<path d="M3990 1580 l0 -121 57 3 c46 2 59 7 61 21 3 14 -4 17 -37 17 l-41 0
0 100 c0 93 -1 100 -20 100 -19 0 -20 -7 -20 -120z"/>
<path d="M4206 1692 c-2 -4 -4 -57 -3 -117 2 -96 4 -110 20 -113 15 -3 17 6
17 70 l1 73 20 -37 c11 -21 24 -38 29 -38 5 0 19 17 30 38 l20 37 -2 -70 c-1
-61 1 -70 16 -70 16 0 17 12 18 115 0 98 -3 115 -17 118 -11 3 -22 -12 -38
-47 -12 -28 -24 -51 -28 -51 -3 0 -15 23 -26 50 -19 46 -43 64 -57 42z"/>
<path d="M4426 1588 c-31 -134 -31 -128 -7 -128 13 0 21 8 23 23 2 16 10 22
28 22 18 0 26 -6 28 -22 2 -15 10 -23 23 -23 24 0 24 2 -7 132 -21 87 -29 108
-43 108 -15 0 -23 -21 -45 -112z m54 -8 c0 -16 -4 -30 -10 -30 -11 0 -14 43
-3 53 11 12 13 8 13 -23z"/>
<path d="M4570 1581 c0 -113 1 -121 20 -121 16 0 19 8 22 63 l3 62 24 -62 c17
-47 28 -63 42 -63 18 0 19 9 19 120 0 113 -1 120 -20 120 -18 0 -20 -7 -20
-67 l-1 -68 -27 65 c-17 39 -34 66 -45 68 -15 3 -17 -8 -17 -117z"/>
<path d="M4775 1688 c-14 -45 -47 -219 -42 -224 12 -12 37 5 37 26 0 32 48 28
56 -5 4 -16 13 -25 26 -25 16 0 19 5 15 23 -3 12 -16 66 -28 120 -18 80 -26
97 -41 97 -10 0 -20 -6 -23 -12z m35 -114 c0 -14 -5 -24 -11 -22 -6 2 -10 7
-10 11 1 4 1 16 1 28 0 11 5 17 10 14 6 -3 10 -18 10 -31z"/>
<path d="M4902 1688 c-16 -16 -16 -200 0 -216 16 -16 80 -16 96 0 7 7 12 36
12 65 0 53 0 53 -31 53 -26 0 -30 -3 -24 -17 4 -10 10 -31 13 -46 4 -24 1 -28
-14 -25 -16 3 -19 14 -22 81 -3 72 -1 77 18 77 13 0 20 -7 20 -20 0 -13 7 -20
20 -20 15 0 20 7 20 28 0 37 -17 52 -60 52 -20 0 -41 -5 -48 -12z"/>
<path d="M5040 1580 l0 -121 57 3 c46 2 59 7 61 21 3 14 -4 17 -37 17 -39 0
-41 2 -41 30 0 23 4 30 20 30 13 0 20 7 20 20 0 13 -7 20 -20 20 -16 0 -20 7
-20 30 0 28 2 30 41 30 33 0 40 3 37 18 -2 13 -15 18 -61 20 l-57 3 0 -121z"/>
<path d="M5180 1580 c0 -113 1 -120 20 -120 18 0 20 7 21 73 l1 72 15 -37 c19
-47 38 -48 57 -5 14 32 14 32 15 -35 1 -61 3 -68 21 -68 19 0 20 7 20 120 0
110 -1 120 -19 120 -13 0 -25 -16 -41 -52 l-22 -53 -25 53 c-17 36 -30 52 -44
52 -18 0 -19 -8 -19 -120z"/>
<path d="M5380 1580 l0 -121 57 3 c45 2 59 7 61 20 2 13 -5 17 -35 20 -33 3
-38 7 -41 31 -3 22 1 27 17 27 14 0 21 6 21 20 0 14 -7 20 -21 20 -16 0 -20 5
-17 28 3 23 8 27 41 30 30 3 37 7 35 20 -2 13 -16 18 -61 20 l-57 3 0 -121z"/>
<path d="M5520 1581 c0 -113 1 -121 20 -121 17 0 19 8 22 68 l3 67 26 -65 c20
-48 32 -66 48 -68 20 -3 21 0 21 117 0 113 -1 121 -20 121 -17 0 -19 -8 -22
-67 l-3 -68 -26 65 c-20 48 -32 66 -48 68 -20 3 -21 0 -21 -117z"/>
<path d="M5687 1693 c-14 -14 -6 -32 16 -35 21 -3 22 -8 25 -100 2 -90 4 -98
22 -98 19 0 20 7 20 100 0 93 1 100 20 100 13 0 20 7 20 20 0 18 -7 20 -58 20
-32 0 -62 -3 -65 -7z"/>
</g>
</svg>
